<svg width="183" height="24" viewBox="0 0 183 24" fill="none" xmlns="http://www.w3.org/2000/svg">
<path fill-rule="evenodd" clip-rule="evenodd" d="M115.919 0C115.919 0 115.888 8.28424 115.949 13.8578C115.949 19.736 120.03 23.9999 134.162 23.9999C149.055 23.9999 151.34 18 151.34 14.7715C151.34 11.5431 151.37 0.0304586 151.37 0.0304586H144.822C144.822 0.0304586 144.852 9.4416 144.852 13.6751C144.852 17.9086 142.264 21.5939 135.045 21.5939C127.035 21.5939 125.36 17.4822 125.36 13.6751C125.36 9.89845 125.421 0.0304586 125.421 0.0304586H115.919V0Z" fill="black"/>
<path fill-rule="evenodd" clip-rule="evenodd" d="M153.502 0V23.5735H178.446V20.3756L163.492 20.5888V12.3959L178.111 12.6091L178.081 9.53297L163.492 9.71571V2.83248L178.446 3.01522V0H153.502Z" fill="black"/>
<path fill-rule="evenodd" clip-rule="evenodd" d="M81.7156 3.3807L70.2029 2.98476L70.1725 23.5735H60.3045L60.1522 2.98476L48.335 3.3807L48.3654 0H81.7461L81.7156 3.3807Z" fill="black"/>
<path fill-rule="evenodd" clip-rule="evenodd" d="M0 0.0305176V23.6041H3.95938C3.95938 23.6041 12.8832 3.38076 28.4771 3.38076C28.4771 3.38076 35.939 2.77162 43.1268 13.3706V0.0305176H0Z" fill="#1AA2DC"/>
<path fill-rule="evenodd" clip-rule="evenodd" d="M18.67 23.6041H42.9136C42.9136 23.6041 39.0152 11.4518 30.6091 11.4518C30.6091 11.4518 23.4213 11.1168 18.67 23.6041Z" fill="#1AA2DC"/>
<path fill-rule="evenodd" clip-rule="evenodd" d="M179.969 1.5229C179.969 0.791935 180.517 0.274168 181.218 0.274168C181.918 0.274168 182.436 0.822392 182.436 1.5229C182.436 2.25386 181.888 2.80208 181.218 2.80208C180.517 2.77162 179.969 2.25386 179.969 1.5229ZM181.218 3.04574C182.04 3.04574 182.741 2.40614 182.741 1.5229C182.741 0.670108 182.04 0.0305176 181.218 0.0305176C180.396 0.0305176 179.695 0.670108 179.695 1.5229C179.695 2.40614 180.396 3.04574 181.218 3.04574ZM180.913 1.64472H181.218L181.675 2.40614H181.979L181.492 1.64472C181.736 1.61427 181.949 1.46198 181.949 1.15741C181.949 0.822388 181.736 0.670102 181.34 0.670102H180.67V2.40614H180.944V1.64472H180.913ZM180.913 1.40107V0.852845H181.279C181.462 0.852845 181.675 0.8833 181.675 1.12695C181.675 1.40107 181.462 1.40107 181.248 1.40107H180.913Z" fill="black"/>
<path fill-rule="evenodd" clip-rule="evenodd" d="M104.68 12.5178C104.68 12.5178 104.528 12.396 104.71 12.3655C109.248 11.6346 113.451 9.98988 113.817 6.51781C114.122 1.85792 108.913 0.213251 102.913 0.0609669C101.573 0.0305101 95.817 0.0305176 93.5023 0.0305176H83.5734V23.6041H93.5023V12.8833C93.6241 12.8833 93.8068 12.8833 93.9591 12.8833C94.2637 12.8833 94.3855 13.0356 94.3855 13.0356L106.355 23.6041H119.269L104.68 12.5178ZM93.5327 11.0559V2.07112C93.5327 2.07112 95.7256 2.01021 98.1012 2.13203C101.573 2.4366 103.583 3.50259 103.583 6.36552C103.583 11.7259 93.5327 11.0559 93.5327 11.0559Z" fill="black"/>
</svg>
