<svg width="401" height="208" viewBox="0 0 401 208" fill="none" xmlns="http://www.w3.org/2000/svg">
<path d="M67.7 100H51.8V71.8H23.5V100H7.7V29.1H23.5V56.9H51.8V29.1H67.7V100ZM93.0047 69.2H112.905C112.771 66.9333 111.871 64.9667 110.205 63.3C108.605 61.6333 106.171 60.8 102.905 60.8C99.9714 60.8 97.638 61.6667 95.9047 63.4C94.1714 65.1333 93.2047 67.0667 93.0047 69.2ZM114.005 82.1L126.705 85.7C125.438 90.3 122.805 94.1 118.805 97.1C114.805 100.033 109.805 101.5 103.805 101.5C96.6047 101.5 90.4714 99.1 85.4047 94.3C80.4047 89.5 77.9047 83.0667 77.9047 75C77.9047 67.2667 80.338 60.9667 85.2047 56.1C90.138 51.2333 95.9714 48.8 102.705 48.8C110.438 48.8 116.505 51.0667 120.905 55.6C125.371 60.0667 127.605 66.3 127.605 74.3C127.605 76.8333 127.505 78.4 127.305 79H92.7047C92.838 81.7333 94.0047 84.0333 96.2047 85.9C98.4047 87.7 101.005 88.6 104.005 88.6C109.138 88.6 112.471 86.4333 114.005 82.1ZM134.364 86.3C134.364 82.1 135.731 78.7333 138.464 76.2C141.197 73.6 144.731 71.9667 149.064 71.3L160.764 69.5C163.164 69.1667 164.364 68.0333 164.364 66.1C164.364 64.5667 163.697 63.3 162.364 62.3C161.097 61.2333 159.331 60.7 157.064 60.7C154.531 60.7 152.497 61.4333 150.964 62.9C149.497 64.3 148.697 66 148.564 68L135.364 65.3C135.697 61.1667 137.731 57.4 141.464 54C145.264 50.5333 150.497 48.8 157.164 48.8C164.697 48.8 170.231 50.6 173.764 54.2C177.364 57.8 179.164 62.4 179.164 68V92.3C179.164 95.4333 179.364 98 179.764 100H166.064C165.731 98.6667 165.564 96.8 165.564 94.4C162.697 99.0667 158.031 101.4 151.564 101.4C146.297 101.4 142.097 99.9333 138.964 97C135.897 94 134.364 90.4333 134.364 86.3ZM155.264 90.4C157.864 90.4 160.031 89.6333 161.764 88.1C163.497 86.5667 164.364 84.0333 164.364 80.5V78.3L154.964 79.8C151.231 80.4 149.364 82.2333 149.364 85.3C149.364 86.7 149.831 87.9 150.764 88.9C151.764 89.9 153.264 90.4 155.264 90.4ZM207.154 100H191.954V27.6H207.154V100ZM238.767 35.8V50.3H248.467V63.6H238.767V82.2C238.767 85.6667 240.601 87.4 244.267 87.4C245.467 87.4 246.801 87.2333 248.267 86.9V99.5C246.401 100.433 243.767 100.9 240.367 100.9C235.234 100.9 231.167 99.4667 228.167 96.6C225.234 93.7333 223.767 89.8333 223.767 84.9V63.6H214.967V50.3H217.467C220.001 50.3 221.901 49.5667 223.167 48.1C224.501 46.5667 225.167 44.6 225.167 42.2V35.8H238.767ZM270.728 70.8V100H255.528V27.6H270.728V53.5C273.728 50.5 277.961 49 283.428 49C289.628 49 294.295 50.8667 297.428 54.6C300.628 58.2667 302.228 63 302.228 68.8V100H287.028V71.4C287.028 68.8 286.328 66.7333 284.928 65.2C283.595 63.6 281.595 62.8 278.928 62.8C276.595 62.8 274.661 63.5667 273.128 65.1C271.661 66.5667 270.861 68.4667 270.728 70.8Z" fill="#313131"/>
<path d="M92.6 181H76.7V110.1H122.4V125.1H92.5V140.1H118.8V154.5H92.6V181ZM147.638 181H132.438V131.3H147.638V181ZM133.738 122.4C132.005 120.667 131.138 118.567 131.138 116.1C131.138 113.633 132.005 111.533 133.738 109.8C135.472 108.067 137.538 107.2 139.938 107.2C142.405 107.2 144.505 108.067 146.238 109.8C148.038 111.533 148.938 113.633 148.938 116.1C148.938 118.567 148.038 120.667 146.238 122.4C144.505 124.133 142.405 125 139.938 125C137.538 125 135.472 124.133 133.738 122.4ZM179.154 116.8V131.3H188.854V144.6H179.154V163.2C179.154 166.667 180.987 168.4 184.654 168.4C185.854 168.4 187.187 168.233 188.654 167.9V180.5C186.787 181.433 184.154 181.9 180.754 181.9C175.621 181.9 171.554 180.467 168.554 177.6C165.621 174.733 164.154 170.833 164.154 165.9V144.6H155.354V131.3H157.854C160.387 131.3 162.287 130.567 163.554 129.1C164.887 127.567 165.554 125.6 165.554 123.2V116.8H179.154ZM214.24 152.5V181H199.04V131.3H213.74V137C215.007 134.8 216.94 133.1 219.54 131.9C222.207 130.633 224.907 130 227.64 130C233.573 130 238.073 131.867 241.14 135.6C244.207 139.267 245.74 144 245.74 149.8V181H230.54V152.4C230.54 149.8 229.84 147.733 228.44 146.2C227.107 144.6 225.107 143.8 222.44 143.8C219.973 143.8 217.973 144.633 216.44 146.3C214.973 147.9 214.24 149.967 214.24 152.5ZM270.013 150.2H289.913C289.779 147.933 288.879 145.967 287.213 144.3C285.613 142.633 283.179 141.8 279.913 141.8C276.979 141.8 274.646 142.667 272.913 144.4C271.179 146.133 270.213 148.067 270.013 150.2ZM291.013 163.1L303.713 166.7C302.446 171.3 299.813 175.1 295.813 178.1C291.813 181.033 286.813 182.5 280.813 182.5C273.613 182.5 267.479 180.1 262.413 175.3C257.413 170.5 254.913 164.067 254.913 156C254.913 148.267 257.346 141.967 262.213 137.1C267.146 132.233 272.979 129.8 279.713 129.8C287.446 129.8 293.513 132.067 297.913 136.6C302.379 141.067 304.612 147.3 304.612 155.3C304.612 157.833 304.513 159.4 304.313 160H269.713C269.846 162.733 271.013 165.033 273.213 166.9C275.413 168.7 278.013 169.6 281.013 169.6C286.146 169.6 289.479 167.433 291.013 163.1ZM310.272 166.9L323.172 164.6C323.305 166.467 324.005 168.067 325.272 169.4C326.605 170.667 328.505 171.3 330.972 171.3C332.839 171.3 334.272 170.9 335.272 170.1C336.272 169.233 336.772 168.2 336.772 167C336.772 165 335.139 163.633 331.872 162.9L326.172 161.6C321.105 160.533 317.372 158.667 314.972 156C312.572 153.267 311.372 150.033 311.372 146.3C311.372 141.7 313.172 137.8 316.772 134.6C320.439 131.4 325.005 129.8 330.472 129.8C336.939 129.8 341.772 131.367 344.972 134.5C348.239 137.567 350.039 140.933 350.372 144.6L337.772 146.9C337.572 145.1 336.872 143.633 335.672 142.5C334.539 141.367 332.872 140.8 330.672 140.8C329.205 140.8 327.939 141.2 326.872 142C325.805 142.8 325.272 143.833 325.272 145.1C325.272 147.1 326.572 148.333 329.172 148.8L335.772 150.1C340.772 151.1 344.572 153 347.172 155.8C349.772 158.6 351.072 161.9 351.072 165.7C351.072 170.3 349.339 174.267 345.872 177.6C342.405 180.867 337.539 182.5 331.272 182.5C327.605 182.5 324.339 181.967 321.472 180.9C318.672 179.833 316.505 178.467 314.972 176.8C313.505 175.067 312.372 173.367 311.572 171.7C310.839 170.033 310.405 168.433 310.272 166.9ZM356.854 166.9L369.754 164.6C369.887 166.467 370.587 168.067 371.854 169.4C373.187 170.667 375.087 171.3 377.554 171.3C379.421 171.3 380.854 170.9 381.854 170.1C382.854 169.233 383.354 168.2 383.354 167C383.354 165 381.721 163.633 378.454 162.9L372.754 161.6C367.687 160.533 363.954 158.667 361.554 156C359.154 153.267 357.954 150.033 357.954 146.3C357.954 141.7 359.754 137.8 363.354 134.6C367.021 131.4 371.587 129.8 377.054 129.8C383.521 129.8 388.354 131.367 391.554 134.5C394.821 137.567 396.621 140.933 396.954 144.6L384.354 146.9C384.154 145.1 383.454 143.633 382.254 142.5C381.121 141.367 379.454 140.8 377.254 140.8C375.787 140.8 374.521 141.2 373.454 142C372.387 142.8 371.854 143.833 371.854 145.1C371.854 147.1 373.154 148.333 375.754 148.8L382.354 150.1C387.354 151.1 391.154 153 393.754 155.8C396.354 158.6 397.654 161.9 397.654 165.7C397.654 170.3 395.921 174.267 392.454 177.6C388.987 180.867 384.121 182.5 377.854 182.5C374.187 182.5 370.921 181.967 368.054 180.9C365.254 179.833 363.087 178.467 361.554 176.8C360.087 175.067 358.954 173.367 358.154 171.7C357.421 170.033 356.987 168.433 356.854 166.9Z" fill="#313131"/>
<path d="M68.4906 176.426L68.639 176.587H68.8578H95H96.1586L95.3638 175.744L74.0456 153.134L87.3227 139.673L87.4667 139.527V139.322V113.901V112.673L86.6088 113.552L61.2385 139.557L49.0486 126.677L51.7252 124.692C51.7255 124.691 51.7259 124.691 51.7262 124.691C60.8815 117.982 65.5454 110.377 65.5454 101.874C65.5454 94.4485 62.8565 88.3423 57.4806 83.5967C52.2016 78.8563 45.4962 76.5 37.4054 76.5C30.0268 76.5 23.5134 78.8645 17.8858 83.5872L17.8858 83.5872L17.8827 83.5899C12.3137 88.3414 9.53782 94.7276 9.53782 102.694C9.53782 109.34 12.9865 116.38 19.7433 123.804C19.7435 123.804 19.7436 123.805 19.7437 123.805L20.7323 124.896C15.3011 128.906 11.2276 132.89 8.53495 136.854L8.53354 136.856C5.83651 140.871 4.5 145.71 4.5 151.349C4.5 158.598 7.23718 164.964 12.6791 170.426L12.679 170.426L12.6851 170.432C18.2425 175.824 25.6385 178.5 34.8185 178.5C44.3396 178.5 52.7831 174.779 60.1326 167.381L68.4906 176.426ZM32.7986 138.633L32.8079 138.626L32.8168 138.619L33.1348 138.363L47.4729 153.802C43.5526 157.791 39.5177 159.733 35.3631 159.733C32.4939 159.733 30.1292 158.779 28.2327 156.877C26.413 154.962 25.5151 152.761 25.5151 150.256C25.5151 146.101 27.8783 142.224 32.7986 138.633ZM34.5018 111.099L34.5013 111.098C31.2651 107.669 29.736 104.645 29.736 102.011C29.736 99.3713 30.4783 97.4783 31.8822 96.2349L31.8836 96.2337C33.4222 94.8608 35.254 94.1739 37.4054 94.1739C39.6355 94.1739 41.5041 94.943 43.0422 96.4869L43.0472 96.4919L43.0524 96.4968C44.5854 97.9501 45.3472 99.7317 45.3472 101.874C45.3472 105.127 43.6095 108.09 39.9711 110.763C39.9703 110.764 39.9696 110.764 39.9688 110.765L36.5166 113.24L34.5018 111.099Z" stroke="#313131"/>
</svg>
